<svg xmlns="http://www.w3.org/2000/svg" width="250" height="250" viewBox="0 0 250 250" fill="none">
<path d="M 230.19,144.71 L 215.96,130.22 L 206.18,141.21 L 216.12,151.76 C 232.97,167.91 235.06,193.74 221.81,209.9 L 213.91,202.74 C 222.72,188.86 219.28,170.48 208.95,160.72 L 198.79,148.31 L 130.81,216.81 L 142.62,228.81 C 166.09,250.88 202.72,247.42 224.51,226.66 C 248.16,204.18 250.11,169.08 230.19,144.71 Z" fill="url(#paint0_linear_174_132)"/>
<path d="M 228.32,23.06 C 205.8,-0.47 167.49,-3.23 143.42,18.66 L 138.77,22.99 L 21.78,142.64 C 10.17,154.58 5.18,168.46 5.18,185.81 C 5.18,202.26 12.88,218.71 23.91,228.47 L 34.81,217.25 C 17.48,200.46 15.11,175.02 30.24,156.29 L 89.22,95.91 L 99.44,106.37 L 42.24,165.94 C 33.35,174.86 33.19,187.68 37.41,199.13 L 128.19,107.02 L 112.49,90.06 L 171.12,80.86 L 228.32,23.06 Z" fill="url(#paint1_linear_174_132)"/>
<path d="M 119.27,31.32 L 107.74,19.26 C 83.75,-2.81 52.42,-0.66 33.11,13.05 C 6.08,30.73 -2.49,65.71 13.42,95.91 C 16.86,102.83 21.94,108.01 32.27,120.42 L 119.27,31.32 Z" fill="url(#paint2_linear_174_132)"/>
<path d="M 228.32,23.06 L 171.12,80.62 L 161.91,139.91 L 145.46,123.46 L 57.13,214.08 C 68.06,217.37 80.47,214.39 87.07,207.47 L 143.42,148.95 L 154.34,160.72 L 97.14,218.71 C 87.62,227.91 76.17,230.74 63.76,229.77 C 52.99,228.89 42.97,224.91 34.81,216.81 L 23.88,228.26 C 35.77,239.71 50.16,245.28 65.29,245.28 C 83.83,245.28 98.96,237.91 109.89,225.42 L 227.44,106.13 C 248.72,83.57 250.03,50.02 228.32,23.06 Z" fill="url(#paint3_linear_174_132)"/>
<path d="M 125.07,72.29 L 157.12,38.91 C 166.9,29.15 178.35,27.68 194.26,30.73 L 202.24,21.45 C 185.15,13.13 163.05,17.03 150.06,31.08 L 118.31,65.09 L 125.07,72.29 Z" fill="white"/>
<defs>
<linearGradient id="paint0_linear_174_132" x1="207.217" y1="128.986" x2="175.15" y2="246.848" gradientUnits="userSpaceOnUse">
<stop stop-color="#0DA1B1"/>
<stop offset="1" stop-color="#0F9BA7"/>
</linearGradient>
<linearGradient id="paint1_linear_174_132" x1="116.751" y1="15.9031" x2="116.751" y2="228.47" gradientUnits="userSpaceOnUse">
<stop stop-color="#46B358"/>
<stop offset="1" stop-color="#43AE55"/>
</linearGradient>
<linearGradient id="paint2_linear_174_132" x1="60.6076" y1="4.6031" x2="60.6076" y2="120.42" gradientUnits="userSpaceOnUse">
<stop stop-color="#48B75A"/>
<stop offset="1" stop-color="#42B056"/>
</linearGradient>
<linearGradient id="paint3_linear_174_132" x1="127.05" y1="21.4531" x2="127.05" y2="245.28" gradientUnits="userSpaceOnUse">
<stop stop-color="#0DA1B2"/>
<stop offset="1" stop-color="#159EAA"/>
</linearGradient>
</defs>
</svg>